<svg width="92" height="29" viewBox="0 0 92 29" fill="none" xmlns="http://www.w3.org/2000/svg">
<path d="M40.5256 24H36.571L42.5966 6.54545H47.3523L53.3693 24H49.4148L45.0426 10.5341H44.9062L40.5256 24ZM40.2784 17.1392H49.6193V20.0199H40.2784V17.1392ZM57.6413 24L52.647 6.54545H56.6783L59.5675 18.6733H59.7124L62.8999 6.54545H66.3516L69.5305 18.6989H69.6839L72.5732 6.54545H76.6044L71.6101 24H68.0135L64.6896 12.5881H64.5533L61.2379 24H57.6413ZM87.8842 11.5653C87.8161 10.8778 87.5234 10.3437 87.0064 9.96307C86.4893 9.58239 85.7876 9.39204 84.9013 9.39204C84.299 9.39204 83.7905 9.47727 83.3757 9.64773C82.9609 9.8125 82.6428 10.0426 82.4212 10.3381C82.2053 10.6335 82.0973 10.9688 82.0973 11.3438C82.0859 11.6562 82.1513 11.929 82.2933 12.1619C82.4411 12.3949 82.6428 12.5966 82.8984 12.767C83.1541 12.9318 83.4496 13.0767 83.7848 13.2017C84.12 13.321 84.478 13.4233 84.8587 13.5085L86.4268 13.8835C87.1882 14.054 87.8871 14.2812 88.5234 14.5653C89.1598 14.8494 89.7109 15.1989 90.1768 15.6136C90.6428 16.0284 91.0036 16.517 91.2592 17.0795C91.5206 17.642 91.6541 18.2869 91.6598 19.0142C91.6541 20.0824 91.3814 21.0085 90.8416 21.7926C90.3075 22.571 89.5348 23.1761 88.5234 23.608C87.5178 24.0341 86.3047 24.2472 84.8842 24.2472C83.4751 24.2472 82.2479 24.0312 81.2024 23.5994C80.1626 23.1676 79.3501 22.5284 78.7649 21.6818C78.1854 20.8295 77.8814 19.7756 77.853 18.5199H81.424C81.4638 19.1051 81.6314 19.5937 81.9268 19.9858C82.228 20.3722 82.6286 20.6648 83.1286 20.8636C83.6342 21.0568 84.2053 21.1534 84.8416 21.1534C85.4666 21.1534 86.0092 21.0625 86.4695 20.8807C86.9354 20.6989 87.2962 20.446 87.5518 20.1222C87.8075 19.7983 87.9354 19.4261 87.9354 19.0057C87.9354 18.6136 87.8189 18.2841 87.5859 18.017C87.3587 17.75 87.0234 17.5227 86.5803 17.3352C86.1428 17.1477 85.6058 16.9773 84.9695 16.8239L83.0689 16.3466C81.5973 15.9886 80.4354 15.429 79.5831 14.6676C78.7308 13.9062 78.3075 12.8807 78.3132 11.5909C78.3075 10.5341 78.5888 9.6108 79.157 8.82102C79.7308 8.03125 80.5178 7.41477 81.5178 6.97159C82.5178 6.52841 83.6541 6.30682 84.9268 6.30682C86.2223 6.30682 87.353 6.52841 88.3189 6.97159C89.2905 7.41477 90.0462 8.03125 90.5859 8.82102C91.1257 9.6108 91.4041 10.5256 91.4212 11.5653H87.8842Z" fill="white"/>
<g clip-path="url(#clip0_0_1)">
<path fill-rule="evenodd" clip-rule="evenodd" d="M14.6531 29.4261L7.96406 27.0261V17.2245L14.6531 19.5026V29.4261ZM15.8719 29.4261L22.5609 27.0261V17.2245L15.8719 19.5045V29.4261ZM8.65312 16.4886L15.4031 14.5826L21.6806 16.6076L15.4031 18.7386L8.65312 16.4886ZM6.69188 15.7386L0 13.3311V3.51543L6.68906 5.79355L6.69188 15.7386ZM7.91719 15.7386L14.6062 13.3386V3.51543L7.91531 5.8048L7.91719 15.7386ZM0.698438 2.80105L7.44844 0.885742L13.7259 2.91074L7.44844 5.04168L0.698438 2.80105ZM22.3097 15.7386L15.6206 13.3386V3.51543L22.3097 5.79355V15.7386ZM23.5284 15.7386L30.2175 13.3386V3.51543L23.5284 5.79355V15.7386ZM16.3097 2.80105L23.0597 0.895117L29.3372 2.92012L23.0597 5.05105L16.3097 2.80105Z" fill="white"/>
</g>
<defs>
<clipPath id="clip0_0_1">
<rect width="30" height="30" fill="white"/>
</clipPath>
</defs>
</svg>
