<svg width="147" height="37" viewBox="0 0 147 37" fill="none" xmlns="http://www.w3.org/2000/svg">
<path d="M1.32739 25.3179H31.5907V26.8867H1.32739V25.3179Z" fill="white"/>
<path d="M17.0642 34.9386L1.92578 26.1987L2.71075 24.8414L17.848 33.579L17.0642 34.9386ZM30.2142 12.1585L15.0769 3.4198L15.8619 2.0625L30.9991 10.8024L30.2142 12.1585Z" fill="white"/>
<path d="M2.71417 12.1544L1.9292 10.7971L17.0789 2.06738L17.8639 3.42468L2.71417 12.1544Z" fill="white"/>
<path d="M29.9349 28.1953L14.8021 1.9881L16.1594 1.20312L31.291 27.4103L29.9349 28.1953ZM2.52759 9.75638H4.09414V27.2361H2.52759V9.75638ZM28.8321 9.75638H30.4009V27.2361H28.8309L28.8321 9.75638Z" fill="white"/>
<path d="M16.7963 34.2753L16.1108 33.0877L29.2766 25.4868L29.9621 26.6745L16.7963 34.2753Z" fill="white"/>
<path d="M32.4797 27.7466C32.0417 28.5041 31.3211 29.0568 30.4761 29.2835C29.631 29.5102 28.7305 29.3923 27.9723 28.9557C27.2148 28.5178 26.6621 27.7972 26.4354 26.9522C26.2087 26.1071 26.3266 25.2066 26.7632 24.4484C27.2011 23.6909 27.9217 23.1381 28.7667 22.9114C29.6118 22.6848 30.5123 22.8026 31.2705 23.2392C32.8586 24.1441 33.3958 26.1801 32.4797 27.7466ZM6.15708 12.5448C5.71916 13.3023 4.99857 13.8551 4.1535 14.0818C3.30843 14.3085 2.40794 14.1906 1.64971 13.754C0.89224 13.3161 0.339487 12.5955 0.112792 11.7504C-0.113903 10.9053 0.00398628 10.0048 0.44058 9.24661C0.878499 8.48914 1.59909 7.93638 2.44415 7.70969C3.28922 7.48299 4.18971 7.60088 4.94795 8.03748C6.52581 8.94235 7.06307 10.9783 6.15821 12.5448M0.45076 27.7466C-0.456369 26.1687 0.0820267 24.1565 1.66102 23.2392C3.23888 22.3321 5.25108 22.8705 6.16839 24.4495C7.07552 26.0274 6.53712 28.0396 4.95813 28.9569C3.37009 29.864 1.35789 29.3256 0.45076 27.7466ZM26.7745 12.5448C25.8673 10.967 26.4057 8.95479 27.9847 8.03748C29.5626 7.13035 31.5748 7.66874 32.4921 9.24774C33.3992 10.8256 32.8608 12.8378 31.2818 13.7551C30.5236 14.1917 29.6231 14.3096 28.778 14.0829C27.933 13.8562 27.2124 13.3023 26.7745 12.5448ZM16.4624 37C14.6391 37 13.1653 35.5262 13.1653 33.7029C13.1653 31.8796 14.6425 30.4058 16.4624 30.4058C18.2823 30.4058 19.7595 31.8796 19.7595 33.7029C19.758 34.5769 19.4101 35.4146 18.7921 36.0326C18.1741 36.6507 17.3364 36.9985 16.4624 37ZM16.4624 6.59421C14.6391 6.59421 13.1653 5.12041 13.1653 3.29711C13.1653 1.4738 14.6425 0 16.4624 0C18.2823 0 19.7595 1.4738 19.7595 3.29711C19.7602 3.7303 19.6755 4.15938 19.51 4.55974C19.3446 4.9601 19.1018 5.32386 18.7954 5.63018C18.4891 5.93649 18.1254 6.17932 17.725 6.34476C17.3246 6.51019 16.8956 6.59496 16.4624 6.59421Z" fill="white"/>
<path d="M55.0909 15.1875C54.9716 14.7727 54.804 14.4062 54.5881 14.0881C54.3722 13.7642 54.108 13.4915 53.7955 13.2699C53.4886 13.0426 53.1364 12.8693 52.7386 12.75C52.3466 12.6307 51.9119 12.571 51.4347 12.571C50.5426 12.571 49.7585 12.7926 49.0824 13.2358C48.4119 13.679 47.8892 14.3239 47.5142 15.1705C47.1392 16.0114 46.9517 17.0398 46.9517 18.2557C46.9517 19.4716 47.1364 20.5057 47.5057 21.358C47.875 22.2102 48.3977 22.8608 49.0739 23.3097C49.75 23.7528 50.5483 23.9744 51.4688 23.9744C52.304 23.9744 53.017 23.8267 53.608 23.5312C54.2045 23.2301 54.6591 22.8068 54.9716 22.2614C55.2898 21.7159 55.4489 21.071 55.4489 20.3267L56.1989 20.4375H51.6989V17.6591H59.0028V19.858C59.0028 21.392 58.679 22.7102 58.0312 23.8125C57.3835 24.9091 56.4915 25.7557 55.3551 26.3523C54.2188 26.9432 52.9176 27.2386 51.4517 27.2386C49.8153 27.2386 48.3778 26.8778 47.1392 26.1562C45.9006 25.429 44.9347 24.3977 44.2415 23.0625C43.554 21.7216 43.2102 20.1307 43.2102 18.2898C43.2102 16.875 43.4148 15.6136 43.8239 14.5057C44.2386 13.392 44.8182 12.4489 45.5625 11.6761C46.3068 10.9034 47.1733 10.3153 48.1619 9.91193C49.1506 9.50852 50.2216 9.30682 51.375 9.30682C52.3636 9.30682 53.2841 9.4517 54.1364 9.74148C54.9886 10.0256 55.7443 10.429 56.4034 10.9517C57.0682 11.4744 57.6108 12.0966 58.0312 12.8182C58.4517 13.5341 58.7216 14.3239 58.8409 15.1875H55.0909ZM61.7067 27V13.9091H65.2266V16.1932H65.3629C65.6016 15.3807 66.0021 14.767 66.5646 14.3523C67.1271 13.9318 67.7749 13.7216 68.5078 13.7216C68.6896 13.7216 68.8857 13.733 69.0959 13.7557C69.3061 13.7784 69.4908 13.8097 69.6499 13.8494V17.071C69.4794 17.0199 69.2436 16.9744 68.9425 16.9347C68.6413 16.8949 68.3658 16.875 68.1158 16.875C67.5817 16.875 67.1044 16.9915 66.6839 17.2244C66.2692 17.4517 65.9396 17.7699 65.6953 18.179C65.4567 18.5881 65.3374 19.0597 65.3374 19.5938V27H61.7067ZM74.8849 27.2472C74.0497 27.2472 73.3054 27.1023 72.652 26.8125C71.9986 26.517 71.4815 26.0824 71.1009 25.5085C70.7259 24.929 70.5384 24.2074 70.5384 23.3438C70.5384 22.6165 70.6719 22.0057 70.9389 21.5114C71.206 21.017 71.5696 20.6193 72.0298 20.3182C72.4901 20.017 73.0128 19.7898 73.598 19.6364C74.1889 19.483 74.8082 19.375 75.456 19.3125C76.2173 19.233 76.831 19.1591 77.2969 19.0909C77.7628 19.017 78.1009 18.9091 78.3111 18.767C78.5213 18.625 78.6264 18.4148 78.6264 18.1364V18.0852C78.6264 17.5455 78.456 17.1278 78.1151 16.8324C77.7798 16.5369 77.3026 16.3892 76.6832 16.3892C76.0298 16.3892 75.5099 16.5341 75.1236 16.8239C74.7372 17.108 74.4815 17.4659 74.3565 17.8977L70.9986 17.625C71.169 16.8295 71.5043 16.142 72.0043 15.5625C72.5043 14.9773 73.1491 14.5284 73.9389 14.2159C74.7344 13.8977 75.6548 13.7386 76.7003 13.7386C77.4276 13.7386 78.1236 13.8239 78.7884 13.9943C79.4588 14.1648 80.0526 14.429 80.5696 14.7869C81.0923 15.1449 81.5043 15.6051 81.8054 16.1676C82.1065 16.7244 82.2571 17.392 82.2571 18.1705V27H78.8139V25.1847H78.7116C78.5014 25.5938 78.2202 25.9545 77.8679 26.267C77.5156 26.5739 77.0923 26.8153 76.598 26.9915C76.1037 27.1619 75.5327 27.2472 74.8849 27.2472ZM75.9247 24.7415C76.4588 24.7415 76.9304 24.6364 77.3395 24.4261C77.7486 24.2102 78.0696 23.9205 78.3026 23.5568C78.5355 23.1932 78.652 22.7812 78.652 22.321V20.9318C78.5384 21.0057 78.3821 21.0739 78.1832 21.1364C77.9901 21.1932 77.7713 21.2472 77.527 21.2983C77.2827 21.3437 77.0384 21.3864 76.794 21.4261C76.5497 21.4602 76.3281 21.4915 76.1293 21.5199C75.7031 21.5824 75.331 21.6818 75.0128 21.8182C74.6946 21.9545 74.4474 22.1392 74.2713 22.3722C74.0952 22.5994 74.0071 22.8835 74.0071 23.2244C74.0071 23.7188 74.1861 24.0966 74.544 24.358C74.9077 24.6136 75.3679 24.7415 75.9247 24.7415ZM85.0739 31.9091V13.9091H88.6534V16.108H88.8153C88.9744 15.7557 89.2045 15.3977 89.5057 15.0341C89.8125 14.6648 90.2102 14.358 90.6989 14.1136C91.1932 13.8636 91.8068 13.7386 92.5398 13.7386C93.4943 13.7386 94.375 13.9886 95.1818 14.4886C95.9886 14.983 96.6335 15.7301 97.1165 16.7301C97.5994 17.7244 97.8409 18.9716 97.8409 20.4716C97.8409 21.9318 97.6051 23.1648 97.1335 24.1705C96.6676 25.1705 96.0313 25.929 95.2244 26.446C94.4233 26.9574 93.5256 27.2131 92.5312 27.2131C91.8267 27.2131 91.2273 27.0966 90.733 26.8636C90.2443 26.6307 89.8438 26.3381 89.5312 25.9858C89.2188 25.6278 88.9801 25.267 88.8153 24.9034H88.7045V31.9091H85.0739ZM88.6278 20.4545C88.6278 21.233 88.7358 21.9119 88.9517 22.4915C89.1676 23.071 89.4801 23.5227 89.8892 23.8466C90.2983 24.1648 90.7955 24.3239 91.3807 24.3239C91.9716 24.3239 92.4716 24.1619 92.8807 23.8381C93.2898 23.5085 93.5994 23.054 93.8097 22.4744C94.0256 21.8892 94.1335 21.2159 94.1335 20.4545C94.1335 19.6989 94.0284 19.0341 93.8182 18.4602C93.608 17.8864 93.2983 17.4375 92.8892 17.1136C92.4801 16.7898 91.9773 16.6278 91.3807 16.6278C90.7898 16.6278 90.2898 16.7841 89.8807 17.0966C89.4773 17.4091 89.1676 17.8523 88.9517 18.4261C88.7358 19 88.6278 19.6761 88.6278 20.4545ZM103.892 19.4318V27H100.261V9.54545H103.79V16.2188H103.943C104.239 15.446 104.716 14.8409 105.375 14.4034C106.034 13.9602 106.861 13.7386 107.855 13.7386C108.764 13.7386 109.557 13.9375 110.233 14.3352C110.915 14.7273 111.443 15.2926 111.818 16.0312C112.199 16.7642 112.386 17.642 112.381 18.6648V27H108.75V19.3125C108.756 18.5057 108.551 17.8778 108.136 17.429C107.727 16.9801 107.153 16.7557 106.415 16.7557C105.92 16.7557 105.483 16.8608 105.102 17.071C104.727 17.2812 104.432 17.5881 104.216 17.9915C104.006 18.3892 103.898 18.8693 103.892 19.4318ZM121.894 20.9318H125.031L126.607 22.9602L128.158 24.767L131.082 28.4318H127.638L125.627 25.9602L124.596 24.4943L121.894 20.9318ZM131.346 18.2727C131.346 20.1761 130.985 21.7955 130.263 23.1307C129.548 24.4659 128.57 25.4858 127.332 26.1903C126.099 26.8892 124.712 27.2386 123.173 27.2386C121.621 27.2386 120.229 26.8864 118.996 26.1818C117.763 25.4773 116.789 24.4574 116.073 23.1222C115.357 21.7869 114.999 20.1705 114.999 18.2727C114.999 16.3693 115.357 14.75 116.073 13.4148C116.789 12.0795 117.763 11.0625 118.996 10.3636C120.229 9.65909 121.621 9.30682 123.173 9.30682C124.712 9.30682 126.099 9.65909 127.332 10.3636C128.57 11.0625 129.548 12.0795 130.263 13.4148C130.985 14.75 131.346 16.3693 131.346 18.2727ZM127.604 18.2727C127.604 17.0398 127.42 16 127.05 15.1534C126.687 14.3068 126.173 13.6648 125.508 13.2273C124.843 12.7898 124.065 12.571 123.173 12.571C122.281 12.571 121.502 12.7898 120.837 13.2273C120.173 13.6648 119.656 14.3068 119.286 15.1534C118.923 16 118.741 17.0398 118.741 18.2727C118.741 19.5057 118.923 20.5455 119.286 21.392C119.656 22.2386 120.173 22.8807 120.837 23.3182C121.502 23.7557 122.281 23.9744 123.173 23.9744C124.065 23.9744 124.843 23.7557 125.508 23.3182C126.173 22.8807 126.687 22.2386 127.05 21.392C127.42 20.5455 127.604 19.5057 127.604 18.2727ZM134.08 27V9.54545H137.77V23.9574H145.253V27H134.08Z" fill="white"/>
</svg>
