<svg width="107" height="30" viewBox="0 0 107 30" fill="none" xmlns="http://www.w3.org/2000/svg">
<path d="M97.7274 10.645C97.4687 10.645 97.2172 10.6984 96.9946 10.8244L89.9511 14.8919C89.4953 15.1544 89.2183 15.6506 89.2183 16.1781V24.2986C89.2183 24.8259 89.4953 25.3212 89.9511 25.5845L91.7906 26.6445C92.6843 27.0851 93.0139 27.0781 93.4207 27.0781C94.7438 27.0781 95.4991 26.2752 95.4991 24.8797V16.8683C95.4991 16.755 95.401 16.674 95.2898 16.674H94.4075C94.2945 16.674 94.1982 16.7571 94.1982 16.8683V24.8839C94.1982 25.5024 93.5539 26.1247 92.5085 25.6018L90.5963 24.4802C90.5287 24.4434 90.4766 24.3763 90.4766 24.3009V16.1803C90.4766 16.1034 90.5281 16.0249 90.5963 15.986L97.625 11.933C97.6909 11.8952 97.7692 11.8952 97.8343 11.933L104.863 15.986C104.93 16.0261 104.983 16.101 104.983 16.1803V24.3009C104.983 24.3784 104.944 24.4578 104.878 24.4952L97.8345 28.5482C97.7721 28.5841 97.689 28.5841 97.6252 28.5482L95.8157 27.4715C95.7616 27.4399 95.6883 27.4424 95.6363 27.4715C95.1369 27.7546 95.0429 27.7875 94.5746 27.95C94.4593 27.9901 94.2837 28.0527 94.6345 28.2493L96.9973 29.6418C97.2222 29.772 97.4728 29.8362 97.7301 29.8362C97.991 29.8362 98.2379 29.7738 98.463 29.6418L105.506 25.5889C105.962 25.3237 106.239 24.8302 106.239 24.3029V16.1824C106.239 15.6549 105.962 15.1598 105.506 14.8963L98.463 10.8288C98.2423 10.7028 97.9891 10.6494 97.7301 10.6494L97.7274 10.645ZM99.6118 16.4476C97.6061 16.4476 96.4116 17.3013 96.4116 18.7206C96.4116 20.2587 97.5971 20.6835 99.5222 20.8739C101.825 21.0994 102.005 21.4376 102.005 21.8909C102.005 22.6772 101.378 23.0124 99.8961 23.0124C98.0346 23.0124 97.6254 22.5477 97.4884 21.6199C97.4722 21.5205 97.3957 21.4405 97.2941 21.4405H96.3796C96.3244 21.4417 96.2719 21.4642 96.2329 21.5031C96.1939 21.5421 96.1715 21.5947 96.1703 21.6498C96.1703 22.8351 96.815 24.2368 99.894 24.2368C102.123 24.2368 103.408 23.3639 103.408 21.8292C103.408 20.3119 102.37 19.9018 100.208 19.6156C98.0257 19.3246 97.8154 19.1854 97.8154 18.6734C97.8154 18.2511 97.992 17.6862 99.6099 17.6862C101.055 17.6862 101.589 17.998 101.808 18.9723C101.827 19.0638 101.908 19.1386 102.003 19.1386H102.917C102.973 19.1386 103.028 19.1041 103.067 19.0638C103.105 19.0208 103.132 18.9723 103.127 18.9141C102.985 17.236 101.866 16.4466 99.6124 16.4466L99.6118 16.4476Z" fill="white"/>
<path d="M56.3183 0.000271833C56.2396 0.000413882 56.1623 0.0210439 56.094 0.0601312C56.0261 0.0998859 55.9697 0.156655 55.9304 0.224845C55.891 0.293035 55.8702 0.370293 55.8698 0.449009V11.8892C55.8698 12.0015 55.8174 12.102 55.7201 12.1584C55.6725 12.1862 55.6183 12.2008 55.5631 12.2008C55.5079 12.2008 55.4537 12.1862 55.4061 12.1584L53.5367 11.0817C53.4004 11.0028 53.2456 10.9613 53.0881 10.9613C52.9306 10.9613 52.7758 11.0028 52.6395 11.0817L45.1774 15.3885C44.8985 15.5494 44.7285 15.8591 44.7285 16.181V24.7947C44.7282 24.9524 44.7696 25.1072 44.8484 25.2438C44.9272 25.3803 45.0406 25.4936 45.1772 25.5723L52.6395 29.8792C52.7757 29.9583 52.9305 30 53.0881 30C53.2457 30 53.4004 29.9583 53.5367 29.8792L60.999 25.5723C61.1356 25.4936 61.249 25.3803 61.3278 25.2438C61.4066 25.1072 61.4479 24.9524 61.4477 24.7947V3.32018C61.4477 2.99345 61.2694 2.68688 60.9842 2.52767L56.5428 0.0449585C56.4729 0.00609149 56.3956 -0.000559547 56.3183 0.000271833ZM8.31443 10.7525C8.17205 10.7583 8.03841 10.7831 7.91058 10.8573L0.448533 15.164C0.311836 15.2426 0.198344 15.3558 0.11957 15.4924C0.0407971 15.629 -0.000453531 15.7839 3.76105e-06 15.9416L0.0151765 27.5017C0.0151765 27.6626 0.0983145 27.8118 0.239649 27.8904C0.378282 27.9735 0.55017 27.9735 0.688179 27.8904L5.11465 25.348C5.39524 25.1817 5.57815 24.8916 5.57815 24.5707V19.1719C5.57815 18.8497 5.74754 18.5546 6.02709 18.3946L7.91142 17.303C8.04758 17.2238 8.20244 17.1824 8.35995 17.1832C8.51754 17.1823 8.6725 17.2236 8.80868 17.303L10.6922 18.3939C10.9713 18.554 11.1407 18.8495 11.1407 19.1713V24.5698C11.1407 24.8912 11.3278 25.183 11.6042 25.3472L16.0307 27.8895C16.1699 27.9727 16.3414 27.9727 16.4792 27.8895C16.6164 27.8106 16.7037 27.6615 16.7037 27.5009L16.7186 15.9412C16.7195 15.7834 16.6785 15.6283 16.5996 15.4917C16.5208 15.355 16.4071 15.2418 16.2701 15.1636L8.80806 10.8571C8.6819 10.7831 8.54763 10.7581 8.40422 10.7523H8.31484L8.31443 10.7525ZM75.3702 10.8573C75.2127 10.8568 75.0579 10.8981 74.9215 10.977L67.4592 15.2839C67.1807 15.445 67.0103 15.7395 67.0103 16.0613V24.675C67.0103 24.9988 67.1928 25.2923 67.4738 25.4523L74.8762 29.6716C75.1495 29.8275 75.4831 29.8393 75.7585 29.6862L80.2448 27.1887C80.3872 27.1097 80.4834 26.9621 80.4838 26.8C80.4842 26.6379 80.4001 26.492 80.2594 26.4113L72.752 22.1044C72.6115 22.0242 72.513 21.8618 72.513 21.7005V19.0071C72.513 18.8462 72.6127 18.6986 72.752 18.6184L75.0848 17.2724C75.2237 17.1922 75.3941 17.1922 75.5338 17.2724L77.8677 18.6184C77.936 18.6577 77.9927 18.7143 78.0321 18.7826C78.0715 18.8508 78.0922 18.9283 78.0919 19.0071V21.1306C78.0917 21.2094 78.1124 21.2869 78.1518 21.3552C78.1911 21.4234 78.2479 21.48 78.3162 21.5193C78.4561 21.5999 78.6255 21.6004 78.7652 21.5193L83.2363 18.9177C83.5138 18.7564 83.6853 18.4611 83.6853 18.1404V16.0619C83.6853 15.9043 83.6438 15.7495 83.565 15.613C83.4863 15.4765 83.373 15.3632 83.2365 15.2844L75.8192 10.9774C75.6828 10.8985 75.528 10.8571 75.3704 10.8577L75.3702 10.8573ZM53.0581 17.288C53.0998 17.2878 53.141 17.298 53.1778 17.3177L55.7349 18.7982C55.8043 18.8383 55.8546 18.9125 55.8546 18.9925V21.9535C55.8546 22.0339 55.8047 22.1079 55.7349 22.1478L53.1778 23.6283C53.1081 23.6678 53.0231 23.6678 52.9533 23.6283L50.3962 22.1478C50.3266 22.1077 50.2765 22.0335 50.2765 21.9535V18.9921C50.2765 18.9119 50.3268 18.8383 50.3962 18.7978L52.9533 17.3175C52.9882 17.2973 53.019 17.288 53.0581 17.288Z" fill="white"/>
<path d="M30.7313 10.8122C30.5737 10.812 30.4189 10.8532 30.2824 10.9319L22.8201 15.2239C22.5412 15.3848 22.3716 15.6947 22.3716 16.0165V24.6302C22.3712 24.7878 22.4124 24.9427 22.4912 25.0792C22.57 25.2157 22.6834 25.329 22.8201 25.4075L30.2824 29.7145C30.4187 29.7936 30.5734 29.8352 30.731 29.8352C30.8886 29.8352 31.0434 29.7936 31.1796 29.7145L38.6419 25.4075C38.7785 25.3289 38.8919 25.2155 38.9707 25.079C39.0495 24.9425 39.0909 24.7876 39.0906 24.63V16.0163C39.0906 15.6941 38.921 15.3844 38.6417 15.2237L31.1794 10.9317C31.0431 10.8527 30.8881 10.8113 30.7305 10.812L30.7313 10.8122ZM75.3556 18.499C75.3259 18.499 75.2929 18.499 75.2659 18.5135L73.8303 19.3511C73.8035 19.366 73.7811 19.3876 73.7654 19.4138C73.7496 19.4401 73.741 19.47 73.7405 19.5006V21.1457C73.7405 21.2076 73.7764 21.2641 73.8303 21.2953L75.2659 22.1177C75.2905 22.133 75.319 22.1411 75.348 22.1411C75.377 22.1411 75.4054 22.133 75.4301 22.1177L76.8656 21.2953C76.9188 21.2648 76.9554 21.2076 76.9554 21.1457V19.5006C76.9554 19.4386 76.9191 19.3821 76.8656 19.3509L75.4301 18.5133C75.4035 18.4975 75.3852 18.4988 75.3552 18.4988L75.3556 18.499Z" fill="white"/>
</svg>
