<svg width="293" height="36" viewBox="0 0 293 36" fill="none" xmlns="http://www.w3.org/2000/svg">
<path d="M30.18 0C22.1333 0 17.1033 4 15.09 12C18.11 8 21.6333 6.5 25.66 7.5C27.96 8.07 29.59 9.73 31.41 11.56C34.36 14.55 37.79 18 45.26 18C53.3067 18 58.34 14 60.36 6C57.34 10 53.8167 11.5 49.79 10.5C47.49 9.93 45.85 8.27 44.03 6.44C41.09 3.45 37.66 0 30.18 0ZM130.45 1.06V31.9H135.04V1.06H130.45ZM122.85 1.78C122.075 1.77999 121.331 2.08732 120.782 2.63464C120.233 3.18196 119.923 3.92465 119.92 4.7C119.933 5.47118 120.246 6.20683 120.794 6.75034C121.341 7.29385 122.079 7.60229 122.85 7.61C123.622 7.60484 124.361 7.29722 124.909 6.75316C125.457 6.20911 125.77 5.47199 125.78 4.7C125.777 3.92465 125.467 3.18196 124.918 2.63464C124.369 2.08732 123.625 1.77999 122.85 1.78ZM175.35 1.78C174.575 1.77999 173.831 2.08732 173.282 2.63464C172.733 3.18196 172.423 3.92465 172.42 4.7C172.42 6.26 173.74 7.61 175.35 7.61C176.96 7.61 178.28 6.26 178.28 4.7C178.277 3.92465 177.967 3.18196 177.418 2.63464C176.869 2.08732 176.125 1.77999 175.35 1.78ZM224.03 2.33V13.77C222.41 11.57 219.91 10.23 216.6 10.23C210.82 10.23 206.02 15.04 206.02 21.33C206.02 27.58 210.82 32.43 216.6 32.43C219.91 32.43 222.42 31.09 224.03 28.85V31.89H228.62V2.33H224.03ZM85.26 3.76L80.67 5.11V10.78H76.77V15.17H80.67V25.3C80.67 30.8 83.47 32.74 90.53 31.9V27.8C87.04 27.96 85.26 28 85.26 25.3V15.17H90.53V10.77H85.26V3.76ZM103.17 10.23C97.39 10.23 92.59 15.04 92.59 21.33C92.59 27.58 97.39 32.43 103.17 32.43C106.48 32.43 108.99 31.09 110.61 28.85V31.89H115.19V10.78H110.61V13.78C108.99 11.58 106.48 10.23 103.17 10.23ZM194.11 10.23C191.23 10.23 188.93 11.28 187.53 13.48V10.78H182.94V31.89H187.54V20.57C187.54 16.27 189.91 14.49 192.93 14.49C195.81 14.49 197.68 16.19 197.68 19.39V31.89H202.27V18.93C202.27 13.43 198.87 10.23 194.12 10.23M243.98 10.23C237.57 10.23 232.77 15.04 232.77 21.33C232.77 27.58 237.57 32.43 243.98 32.43C245.921 32.4696 247.836 31.9806 249.52 31.0153C251.204 30.0499 252.593 28.6447 253.54 26.95L249.59 24.71C249.043 25.7229 248.224 26.5634 247.227 27.1374C246.229 27.7114 245.091 27.9962 243.94 27.96C243.067 27.9765 242.2 27.8159 241.391 27.488C240.582 27.16 239.848 26.6714 239.233 26.0517C238.618 25.4321 238.135 24.6942 237.813 23.8826C237.491 23.0711 237.337 22.2027 237.36 21.33C237.36 17.53 240.2 14.7 243.94 14.7C246.49 14.7 248.57 15.97 249.5 17.96L253.46 15.67C251.76 12.38 248.15 10.23 243.98 10.23ZM264.2 10.23C259.87 10.23 256.43 12.72 256.43 16.69C256.43 24.25 267.86 22.13 267.86 25.89C267.86 27.59 266.28 28.26 264.24 28.26C261.91 28.26 260.21 27.12 259.53 25.22L255.58 27.5C256.94 30.54 260 32.44 264.24 32.44C268.84 32.44 272.53 30.16 272.53 25.94C272.53 18.12 261.1 20.44 261.1 16.6C261.1 15.08 262.54 14.37 264.2 14.37C265.94 14.37 267.43 15.13 268.2 16.77L272.06 14.62C270.57 11.83 267.68 10.22 264.2 10.22M283.78 10.22C279.45 10.22 276.01 12.72 276.01 16.69C276.01 24.25 287.44 22.13 287.44 25.89C287.44 27.59 285.87 28.26 283.83 28.26C281.49 28.26 279.79 27.12 279.11 25.22L275.16 27.5C276.52 30.54 279.58 32.44 283.83 32.44C288.41 32.44 292.11 30.16 292.11 25.94C292.11 18.12 280.68 20.44 280.68 16.6C280.68 15.08 282.13 14.37 283.78 14.37C285.53 14.37 287.01 15.13 287.78 16.77L291.64 14.62C290.16 11.83 287.27 10.22 283.78 10.22ZM120.54 10.78V31.89H125.14V10.78H120.54ZM138.43 10.78L145.1 31.89H149.6L154.06 17.66L158.48 31.89H162.98L169.65 10.78H164.81L160.64 25.34L156.23 10.78H151.85L147.39 25.34L143.27 10.78H138.43ZM173.05 10.78V31.89H177.63V10.78H173.05ZM103.89 14.58C107.72 14.58 110.61 17.41 110.61 21.33C110.61 25.25 107.71 28.09 103.89 28.09C100.07 28.09 97.19 25.26 97.19 21.33C97.19 17.4 100.07 14.58 103.89 14.58ZM217.31 14.58C221.13 14.58 224.01 17.41 224.01 21.33C224.01 25.25 221.13 28.09 217.31 28.09C213.49 28.09 210.59 25.26 210.59 21.33C210.59 17.4 213.49 14.58 217.3 14.58M15.09 18C7.04333 18 2.01333 22 0 30C3.02 26 6.54 24.5 10.56 25.5C12.86 26.07 14.5 27.73 16.32 29.56C19.28 32.55 22.7 36 30.18 36C38.2267 36 43.2567 32 45.27 24C42.25 28 38.73 29.5 34.71 28.5C32.41 27.93 30.77 26.27 28.95 24.44C25.99 21.46 22.57 18 15.09 18Z" fill="white"/>
</svg>
