<svg width="150" height="30" viewBox="0 0 150 30" fill="none" xmlns="http://www.w3.org/2000/svg">
<rect width="33" height="30" rx="2" fill="#535353"/>
<path d="M9.60369 16.7915V14.6364H19.7578V16.7915H15.9727V27H13.3888V16.7915H9.60369ZM28.1371 18.1921C28.0888 17.7051 27.8815 17.3268 27.5153 17.0572C27.149 16.7875 26.652 16.6527 26.0241 16.6527C25.5975 16.6527 25.2373 16.7131 24.9435 16.8338C24.6497 16.9505 24.4244 17.1135 24.2674 17.3228C24.1145 17.5321 24.038 17.7695 24.038 18.0352C24.0299 18.2565 24.0762 18.4497 24.1768 18.6147C24.2815 18.7797 24.4244 18.9226 24.6055 19.0433C24.7866 19.16 24.9959 19.2627 25.2333 19.3512C25.4708 19.4357 25.7243 19.5082 25.994 19.5685L27.1048 19.8342C27.6441 19.9549 28.1391 20.1159 28.5898 20.3171C29.0406 20.5183 29.431 20.7659 29.761 21.0597C30.091 21.3535 30.3466 21.6996 30.5277 22.098C30.7128 22.4964 30.8074 22.9532 30.8114 23.4684C30.8074 24.225 30.6142 24.881 30.2319 25.4364C29.8536 25.9878 29.3062 26.4164 28.5898 26.7223C27.8775 27.0241 27.0182 27.1751 26.0121 27.1751C25.014 27.1751 24.1446 27.0221 23.4041 26.7163C22.6676 26.4104 22.0921 25.9576 21.6776 25.358C21.267 24.7543 21.0517 24.0077 21.0316 23.1183H23.5611C23.5893 23.5328 23.708 23.8789 23.9173 24.1566C24.1306 24.4303 24.4143 24.6375 24.7685 24.7784C25.1267 24.9152 25.5311 24.9837 25.9819 24.9837C26.4246 24.9837 26.8089 24.9193 27.1349 24.7905C27.465 24.6617 27.7205 24.4826 27.9016 24.2532C28.0827 24.0238 28.1733 23.7602 28.1733 23.4624C28.1733 23.1847 28.0908 22.9512 27.9258 22.7621C27.7648 22.5729 27.5273 22.4119 27.2134 22.2791C26.9035 22.1463 26.5232 22.0256 26.0724 21.9169L24.7262 21.5788C23.6838 21.3253 22.8608 20.9289 22.2571 20.3896C21.6534 19.8503 21.3536 19.1238 21.3576 18.2102C21.3536 17.4616 21.5528 16.8076 21.9553 16.2482C22.3617 15.6888 22.9192 15.2521 23.6275 14.9382C24.3358 14.6243 25.1407 14.4673 26.0423 14.4673C26.9599 14.4673 27.7608 14.6243 28.445 14.9382C29.1332 15.2521 29.6684 15.6888 30.0508 16.2482C30.4331 16.8076 30.6303 17.4556 30.6424 18.1921H28.1371Z" fill="white"/>
<path d="M36.9659 9.01705V7.45455H47.875V9.01705H43.3011V22H41.5398V9.01705H36.9659ZM50.1957 26.0909C49.9116 26.0909 49.6583 26.0672 49.4357 26.0199C49.2132 25.9773 49.0593 25.9347 48.9741 25.892L49.4002 24.4148C49.8074 24.5189 50.1673 24.5568 50.4798 24.5284C50.7923 24.5 51.0692 24.3603 51.3107 24.1094C51.5569 23.8632 51.7818 23.4631 51.9854 22.9091L52.2979 22.0568L48.2638 11.0909H50.082L53.0934 19.7841H53.207L56.2184 11.0909H58.0366L53.4059 23.5909C53.1976 24.1544 52.9395 24.6207 52.6317 24.9901C52.324 25.3641 51.9665 25.6411 51.5593 25.821C51.1568 26.0009 50.7023 26.0909 50.1957 26.0909ZM60.2489 26.0909V11.0909H61.8683V12.8239H62.0671C62.1902 12.6345 62.3607 12.393 62.5785 12.0994C62.801 11.8011 63.1183 11.536 63.5302 11.304C63.9469 11.0672 64.5103 10.9489 65.2205 10.9489C66.1391 10.9489 66.9487 11.1785 67.6495 11.6378C68.3503 12.0971 68.8971 12.7481 69.2901 13.5909C69.6831 14.4337 69.8796 15.428 69.8796 16.5739C69.8796 17.7292 69.6831 18.7306 69.2901 19.5781C68.8971 20.4209 68.3526 21.0743 67.6566 21.5384C66.9606 21.9976 66.158 22.2273 65.2489 22.2273C64.5482 22.2273 63.9871 22.1113 63.5657 21.8793C63.1443 21.6425 62.82 21.375 62.5927 21.0767C62.3654 20.7737 62.1902 20.5227 62.0671 20.3239H61.9251V26.0909H60.2489ZM61.8967 16.5455C61.8967 17.3693 62.0174 18.0961 62.2589 18.7259C62.5004 19.3509 62.8531 19.8409 63.3171 20.196C63.7811 20.5464 64.3493 20.7216 65.0217 20.7216C65.7224 20.7216 66.3072 20.5369 66.7759 20.1676C67.2494 19.7936 67.6045 19.2917 67.8413 18.6619C68.0827 18.0275 68.2035 17.322 68.2035 16.5455C68.2035 15.7784 68.0851 15.0871 67.8484 14.4716C67.6164 13.8513 67.2636 13.3613 66.7901 13.0014C66.3214 12.6368 65.7319 12.4545 65.0217 12.4545C64.3398 12.4545 63.7669 12.6274 63.3029 12.973C62.8389 13.3139 62.4885 13.7921 62.2518 14.4077C62.015 15.0185 61.8967 15.7311 61.8967 16.5455ZM77.0103 22.2273C75.9592 22.2273 75.0524 21.9953 74.2901 21.5312C73.5326 21.0625 72.9478 20.4091 72.5359 19.571C72.1287 18.7282 71.9251 17.7481 71.9251 16.6307C71.9251 15.5133 72.1287 14.5284 72.5359 13.6761C72.9478 12.8191 73.5207 12.1515 74.2546 11.6733C74.9933 11.1903 75.855 10.9489 76.8398 10.9489C77.408 10.9489 77.9691 11.0436 78.5231 11.233C79.0771 11.4223 79.5813 11.7301 80.0359 12.1562C80.4904 12.5777 80.8526 13.1364 81.1225 13.8324C81.3924 14.5284 81.5273 15.3854 81.5273 16.4034V17.1136H73.1183V15.6648H79.8228C79.8228 15.0492 79.6997 14.5 79.4535 14.017C79.212 13.5341 78.8664 13.1529 78.4165 12.8736C77.9715 12.5942 77.4459 12.4545 76.8398 12.4545C76.1722 12.4545 75.5946 12.6203 75.1069 12.9517C74.6239 13.2784 74.2522 13.7045 73.9918 14.2301C73.7314 14.7557 73.6012 15.3191 73.6012 15.9205V16.8864C73.6012 17.7102 73.7433 18.4086 74.0273 18.9815C74.3162 19.5497 74.7163 19.983 75.2276 20.2812C75.739 20.5748 76.3332 20.7216 77.0103 20.7216C77.4506 20.7216 77.8484 20.66 78.2035 20.5369C78.5633 20.4091 78.8735 20.2197 79.1339 19.9688C79.3943 19.7131 79.5955 19.3958 79.7376 19.017L81.3569 19.4716C81.1864 20.0208 80.9 20.5038 80.4975 20.9205C80.0951 21.3324 79.5979 21.6544 79.006 21.8864C78.4142 22.1136 77.7489 22.2273 77.0103 22.2273ZM91.8043 13.5341L90.2987 13.9602C90.204 13.7093 90.0643 13.4654 89.8796 13.2287C89.6997 12.9872 89.4535 12.7884 89.141 12.6321C88.8285 12.4759 88.4284 12.3977 87.9407 12.3977C87.2731 12.3977 86.7167 12.5516 86.2717 12.8594C85.8313 13.1624 85.6112 13.5483 85.6112 14.017C85.6112 14.4337 85.7627 14.7628 86.0657 15.0043C86.3687 15.2457 86.8422 15.447 87.4862 15.608L89.1055 16.0057C90.0808 16.2424 90.8076 16.6046 91.2859 17.0923C91.7641 17.5753 92.0032 18.1979 92.0032 18.9602C92.0032 19.5852 91.8233 20.1439 91.4634 20.6364C91.1083 21.1288 90.6112 21.517 89.9719 21.8011C89.3327 22.0852 88.5894 22.2273 87.7418 22.2273C86.6291 22.2273 85.7082 21.9858 84.979 21.5028C84.2499 21.0199 83.7882 20.3144 83.5941 19.3864L85.185 18.9886C85.3365 19.5758 85.623 20.0161 86.0444 20.3097C86.4705 20.6032 87.0269 20.75 87.7134 20.75C88.4947 20.75 89.1149 20.5843 89.5742 20.2528C90.0382 19.9167 90.2702 19.5142 90.2702 19.0455C90.2702 18.6667 90.1377 18.3494 89.8725 18.0938C89.6074 17.8333 89.2002 17.6392 88.6509 17.5114L86.8327 17.0852C85.8337 16.8485 85.0998 16.4815 84.631 15.9844C84.167 15.4825 83.935 14.8551 83.935 14.1023C83.935 13.4867 84.1078 12.9422 84.4535 12.4688C84.8039 11.9953 85.2797 11.6236 85.881 11.3537C86.4871 11.0838 87.1737 10.9489 87.9407 10.9489C89.0202 10.9489 89.8678 11.1856 90.4833 11.6591C91.1036 12.1326 91.5439 12.7576 91.8043 13.5341ZM98.9581 22.2273C97.9354 22.2273 97.0547 21.9858 96.3161 21.5028C95.5774 21.0199 95.0092 20.3546 94.6115 19.5071C94.2138 18.6596 94.0149 17.6913 94.0149 16.6023C94.0149 15.4943 94.2185 14.5166 94.6257 13.669C95.0376 12.8168 95.6106 12.1515 96.3445 11.6733C97.0831 11.1903 97.9448 10.9489 98.9297 10.9489C99.6967 10.9489 100.388 11.0909 101.004 11.375C101.619 11.6591 102.123 12.0568 102.516 12.5682C102.909 13.0795 103.153 13.6761 103.248 14.358H101.572C101.444 13.8608 101.16 13.4205 100.719 13.0369C100.284 12.6487 99.6967 12.4545 98.9581 12.4545C98.3047 12.4545 97.7318 12.625 97.2393 12.9659C96.7517 13.3021 96.3705 13.7779 96.0959 14.3935C95.826 15.0043 95.6911 15.7216 95.6911 16.5455C95.6911 17.3883 95.8236 18.1222 96.0888 18.7472C96.3587 19.3722 96.7375 19.8575 97.2251 20.2031C97.7176 20.5488 98.2952 20.7216 98.9581 20.7216C99.3937 20.7216 99.7891 20.6458 100.144 20.4943C100.499 20.3428 100.8 20.125 101.046 19.8409C101.292 19.5568 101.468 19.2159 101.572 18.8182H103.248C103.153 19.4621 102.919 20.0421 102.545 20.5582C102.175 21.0696 101.685 21.4768 101.075 21.7798C100.469 22.0781 99.763 22.2273 98.9581 22.2273ZM105.698 22V11.0909H107.317V12.7386H107.431C107.63 12.1989 107.99 11.7609 108.511 11.4247C109.031 11.0885 109.619 10.9205 110.272 10.9205C110.395 10.9205 110.549 10.9228 110.734 10.9276C110.918 10.9323 111.058 10.9394 111.153 10.9489V12.6534C111.096 12.6392 110.966 12.6179 110.762 12.5895C110.563 12.5563 110.353 12.5398 110.13 12.5398C109.6 12.5398 109.126 12.651 108.71 12.8736C108.298 13.0914 107.971 13.3944 107.729 13.7827C107.493 14.1662 107.374 14.6042 107.374 15.0966V22H105.698ZM113.14 22V11.0909H114.816V22H113.14ZM113.992 9.27273C113.665 9.27273 113.383 9.16146 113.147 8.93892C112.915 8.71638 112.799 8.44886 112.799 8.13636C112.799 7.82386 112.915 7.55634 113.147 7.33381C113.383 7.11127 113.665 7 113.992 7C114.319 7 114.598 7.11127 114.83 7.33381C115.067 7.55634 115.185 7.82386 115.185 8.13636C115.185 8.44886 115.067 8.71638 114.83 8.93892C114.598 9.16146 114.319 9.27273 113.992 9.27273ZM117.886 26.0909V11.0909H119.505V12.8239H119.704C119.827 12.6345 119.997 12.393 120.215 12.0994C120.438 11.8011 120.755 11.536 121.167 11.304C121.584 11.0672 122.147 10.9489 122.857 10.9489C123.776 10.9489 124.585 11.1785 125.286 11.6378C125.987 12.0971 126.534 12.7481 126.927 13.5909C127.32 14.4337 127.516 15.428 127.516 16.5739C127.516 17.7292 127.32 18.7306 126.927 19.5781C126.534 20.4209 125.989 21.0743 125.293 21.5384C124.597 21.9976 123.795 22.2273 122.886 22.2273C122.185 22.2273 121.624 22.1113 121.202 21.8793C120.781 21.6425 120.457 21.375 120.229 21.0767C120.002 20.7737 119.827 20.5227 119.704 20.3239H119.562V26.0909H117.886ZM119.533 16.5455C119.533 17.3693 119.654 18.0961 119.896 18.7259C120.137 19.3509 120.49 19.8409 120.954 20.196C121.418 20.5464 121.986 20.7216 122.658 20.7216C123.359 20.7216 123.944 20.5369 124.413 20.1676C124.886 19.7936 125.241 19.2917 125.478 18.6619C125.719 18.0275 125.84 17.322 125.84 16.5455C125.84 15.7784 125.722 15.0871 125.485 14.4716C125.253 13.8513 124.9 13.3613 124.427 13.0014C123.958 12.6368 123.369 12.4545 122.658 12.4545C121.977 12.4545 121.404 12.6274 120.94 12.973C120.476 13.3139 120.125 13.7921 119.888 14.4077C119.652 15.0185 119.533 15.7311 119.533 16.5455ZM134.817 11.0909V12.5114H129.164V11.0909H134.817ZM130.812 8.47727H132.488V18.875C132.488 19.3485 132.557 19.7036 132.694 19.9403C132.836 20.1723 133.016 20.3286 133.234 20.4091C133.456 20.4848 133.691 20.5227 133.937 20.5227C134.121 20.5227 134.273 20.5133 134.391 20.4943C134.51 20.4706 134.604 20.4517 134.675 20.4375L135.016 21.9432C134.903 21.9858 134.744 22.0284 134.54 22.071C134.337 22.1184 134.079 22.142 133.766 22.142C133.293 22.142 132.829 22.0402 132.374 21.8366C131.924 21.633 131.55 21.3229 131.252 20.9062C130.959 20.4896 130.812 19.964 130.812 19.3295V8.47727Z" fill="white"/>
</svg>
