<svg width="113" height="27" viewBox="0 0 113 27" fill="none" xmlns="http://www.w3.org/2000/svg">
<path d="M86.4577 20.9125L86.4499 16.193L86.4264 7.76204M91.2006 11.3952L86.4499 16.1926L91.2241 20.9277M59.3987 16.2558C59.4215 15.2439 59.1272 14.2098 58.5313 13.3725C57.6726 12.1667 56.2822 11.3413 54.7572 11.3254C54.6557 11.3254 54.5549 11.3254 54.4526 11.3332C53.8496 11.3705 53.2658 11.4541 52.7491 11.6692C49.3514 13.083 48.7494 17.8014 51.616 19.9364C54.0988 21.783 57.7101 21.0303 58.9608 18.2099C59.2249 17.6138 59.3985 16.8624 59.3985 16.2562V7.72363M82.3243 11.8882C81.6225 11.4336 80.7999 11.2696 79.9879 11.2709C79.8999 11.2709 79.8094 11.2754 79.7302 11.2787C77.3826 11.3797 75.206 13.0385 75.206 16.256C75.206 20.06 79.2848 22.113 82.3339 20.319M96.0235 19.9048L103.236 13.7243C103.236 13.7243 103.06 13.3925 102.946 13.24C101.976 11.937 100.49 11.2863 98.9301 11.2863C95.0707 11.2863 92.1749 16.2789 96.0235 19.9048ZM96.0235 19.9048C96.29 20.156 96.656 20.3526 97.0628 20.5222C98.4749 21.1109 100.408 21.0627 101.454 20.2876M111.744 11.3954C110.559 11.3985 109.404 11.8138 108.548 12.6141C107.199 13.7276 106.906 15.1342 106.923 16.9117L106.963 20.9515M67.2921 11.3016C67.1826 11.3034 67.0738 11.3153 66.9639 11.3173C64.0362 11.3727 61.9253 14.4122 62.5648 17.2323C63.188 19.9806 66.1904 21.608 68.7845 20.7094C71.8055 19.9154 73.0372 16.1114 71.3786 13.5443C70.4714 12.1409 68.9337 11.2704 67.2921 11.3016Z" stroke="white" stroke-width="1.93892" stroke-linecap="round" stroke-linejoin="round"/>
<path d="M27.3054 8.44678H31.5279V12.7632H33.6629C34.649 12.7632 35.6627 12.5878 36.5966 12.2713C37.0552 12.1158 37.5703 11.8992 38.0229 11.6249C37.4268 10.8468 37.1225 9.86404 37.0331 8.89568C36.9112 7.57833 37.1771 5.86358 38.0672 4.83245L38.5111 4.3191L39.04 4.74418C40.3695 5.81409 41.4915 7.31094 41.6889 9.01313C43.2923 8.54151 45.1749 8.65304 46.5879 9.46868L47.1677 9.80328L46.8625 10.399C45.6689 12.7336 43.1699 13.4562 40.7268 13.3282C37.0713 22.4338 29.1123 26.7443 19.4622 26.7443C14.4764 26.7443 9.90244 24.8805 7.29764 20.4572C7.14492 20.1824 7.01419 19.8951 6.87551 19.6129C5.99505 17.6659 5.70255 15.5329 5.90088 13.4015L5.96034 12.7632H9.57116V8.44678H13.7936V4.22437H22.2384V0.00195312H27.3054V8.44678Z" fill="white"/>
<mask id="mask0_120_148" style="mask-type:luminance" maskUnits="userSpaceOnUse" x="6" y="0" width="41" height="27">
<path d="M14.1047 0.371094V8.86541H10.0422V13.1126H6.64078L6.60274 13.4819C6.39039 15.7957 6.79405 17.9299 7.72233 19.7547L8.03404 20.3143C8.2187 20.6498 8.44029 20.9648 8.66889 21.2723C8.8975 21.5797 8.98023 21.7493 9.125 21.9533C11.5786 24.7092 15.2367 26.0387 19.4598 26.0387C28.8124 26.0387 36.75 21.8953 40.2628 12.5874C42.7551 12.843 45.1459 12.204 46.2354 10.0773C44.4996 9.07573 42.2693 9.39686 40.9842 10.0428L44.3888 0.371094L31.0933 8.86541H26.8462V0.371094H14.1047Z" fill="white"/>
</mask>
<g mask="url(#mask0_120_148)">
<path d="M22.9424 0.705078H26.602V4.36465H22.9424V0.705078Z" fill="black"/>
<path d="M23.3914 4.05978V1.00977ZM23.9402 4.05959V1.00977ZM24.4945 4.05959V1.00977ZM25.049 4.05959V1.00977ZM25.6036 4.05959V1.00977ZM26.152 4.05959V1.00977Z" fill="white"/>
<path d="M23.3914 4.05978V1.00977M23.9402 4.05959V1.00977M24.4945 4.05959V1.00977M25.049 4.05959V1.00977M25.6036 4.05959V1.00977M26.152 4.05959V1.00977" stroke="white" stroke-width="0.288068"/>
<path d="M27.1648 4.3667H30.8244V0.707311H27.1648V4.3667Z" fill="white"/>
<path d="M27.6138 1.01005V4.06006ZM28.1626 1.01023V4.06006ZM28.7169 1.01023V4.06006ZM29.2715 1.01023V4.06006ZM29.826 1.01023V4.06006ZM30.3744 1.01023V4.06006Z" fill="white"/>
<path d="M27.6138 1.01005V4.06006M28.1626 1.01023V4.06006M28.7169 1.01023V4.06006M29.2715 1.01023V4.06006M29.826 1.01023V4.06006M30.3744 1.01023V4.06006" stroke="white" stroke-width="0.288068"/>
<path d="M6.05273 4.92578H9.7123V8.58517H6.05273V4.92578Z" fill="white"/>
<path d="M6.05273 9.1499H9.7123V12.8095H6.05273V9.1499Z" fill="black"/>
<path d="M6.50171 8.28243V5.23242ZM7.05052 8.28225V5.23242ZM7.60486 8.28225V5.23242ZM8.15939 8.28225V5.23242ZM8.71392 8.28225V5.23242ZM9.26236 8.28225V5.23242Z" fill="white"/>
<path d="M6.50171 8.28243V5.23242M7.05052 8.28225V5.23242M7.60486 8.28225V5.23242M8.15939 8.28225V5.23242M8.71392 8.28225V5.23242M9.26236 8.28225V5.23242" stroke="white" stroke-width="0.288068"/>
<path d="M6.50171 12.5046V9.45459ZM7.05052 12.5044V9.45459ZM7.60486 12.5044V9.45459ZM8.15939 12.5044V9.45459ZM8.71392 12.5044V9.45459ZM9.26236 12.5044V9.45459Z" fill="white"/>
<path d="M6.50171 12.5046V9.45459M7.05052 12.5044V9.45459M7.60486 12.5044V9.45459M8.15939 12.5044V9.45459M8.71392 12.5044V9.45459M9.26236 12.5044V9.45459" stroke="white" stroke-width="0.288068"/>
<path d="M10.2751 12.8115H13.9347V9.15214H10.2751V12.8115Z" fill="white"/>
<path d="M10.2751 8.5874H13.9347V4.92783H10.2751V8.5874Z" fill="black"/>
<path d="M10.7241 9.45487V12.5049ZM11.2729 9.45505V12.5049ZM11.8273 9.45505V12.5049ZM12.3818 9.45505V12.5049ZM12.9363 9.45505V12.5049ZM13.4848 9.45505V12.5049Z" fill="white"/>
<path d="M10.7241 9.45487V12.5049M11.2729 9.45505V12.5049M11.8273 9.45505V12.5049M12.3818 9.45505V12.5049M12.9363 9.45505V12.5049M13.4848 9.45505V12.5049" stroke="white" stroke-width="0.288068"/>
<path d="M10.7241 5.2327V8.28271ZM11.2729 5.23289V8.28271ZM11.8273 5.23289V8.28271ZM12.3818 5.23289V8.28271ZM12.9363 5.23289V8.28271ZM13.4848 5.23289V8.28271Z" fill="white"/>
<path d="M10.7241 5.2327V8.28271M11.2729 5.23289V8.28271M11.8273 5.23289V8.28271M12.3818 5.23289V8.28271M12.9363 5.23289V8.28271M13.4848 5.23289V8.28271" stroke="white" stroke-width="0.288068"/>
<path d="M14.4976 4.92578H18.1571V8.58517H14.4976V4.92578Z" fill="white"/>
<path d="M14.4976 9.1499H18.1571V12.8095H14.4976V9.1499Z" fill="black"/>
<path d="M14.9465 8.28243V5.23242ZM15.4953 8.28225V5.23242ZM16.0497 8.28225V5.23242ZM16.6042 8.28225V5.23242ZM17.1587 8.28225V5.23242ZM17.7072 8.28225V5.23242Z" fill="white"/>
<path d="M14.9465 8.28243V5.23242M15.4953 8.28225V5.23242M16.0497 8.28225V5.23242M16.6042 8.28225V5.23242M17.1587 8.28225V5.23242M17.7072 8.28225V5.23242" stroke="white" stroke-width="0.288068"/>
<path d="M14.9465 12.5046V9.45459ZM15.4953 12.5044V9.45459ZM16.0497 12.5044V9.45459ZM16.6042 12.5044V9.45459ZM17.1587 12.5044V9.45459ZM17.7072 12.5044V9.45459Z" fill="white"/>
<path d="M14.9465 12.5046V9.45459M15.4953 12.5044V9.45459M16.0497 12.5044V9.45459M16.6042 12.5044V9.45459M17.1587 12.5044V9.45459M17.7072 12.5044V9.45459" stroke="white" stroke-width="0.288068"/>
<path d="M18.72 12.8115H22.3795V9.15214H18.72V12.8115Z" fill="white"/>
<path d="M18.72 8.5874H22.3795V4.92783H18.72V8.5874Z" fill="black"/>
<path d="M19.1689 9.45487V12.5049ZM19.7178 9.45505V12.5049ZM20.2721 9.45505V12.5049ZM20.8266 9.45505V12.5049ZM21.3812 9.45505V12.5049ZM21.9296 9.45505V12.5049Z" fill="white"/>
<path d="M19.1689 9.45487V12.5049M19.7178 9.45505V12.5049M20.2721 9.45505V12.5049M20.8266 9.45505V12.5049M21.3812 9.45505V12.5049M21.9296 9.45505V12.5049" stroke="white" stroke-width="0.288068"/>
<path d="M19.1689 5.2327V8.28271ZM19.7178 5.23289V8.28271ZM20.2721 5.23289V8.28271ZM20.8266 5.23289V8.28271ZM21.3812 5.23289V8.28271ZM21.9296 5.23289V8.28271Z" fill="white"/>
<path d="M19.1689 5.2327V8.28271M19.7178 5.23289V8.28271M20.2721 5.23289V8.28271M20.8266 5.23289V8.28271M21.3812 5.23289V8.28271M21.9296 5.23289V8.28271" stroke="white" stroke-width="0.288068"/>
<path d="M22.9424 4.92578H26.602V8.58517H22.9424V4.92578Z" fill="white"/>
<path d="M22.9424 9.1499H26.602V12.8095H22.9424V9.1499Z" fill="black"/>
<path d="M23.3914 8.28243V5.23242ZM23.9402 8.28225V5.23242ZM24.4945 8.28225V5.23242ZM25.049 8.28225V5.23242ZM25.6036 8.28225V5.23242ZM26.152 8.28225V5.23242Z" fill="white"/>
<path d="M23.3914 8.28243V5.23242M23.9402 8.28225V5.23242M24.4945 8.28225V5.23242M25.049 8.28225V5.23242M25.6036 8.28225V5.23242M26.152 8.28225V5.23242" stroke="white" stroke-width="0.288068"/>
<path d="M23.3914 12.5046V9.45459ZM23.9402 12.5044V9.45459ZM24.4945 12.5044V9.45459ZM25.049 12.5044V9.45459ZM25.6036 12.5044V9.45459ZM26.152 12.5044V9.45459Z" fill="white"/>
<path d="M23.3914 12.5046V9.45459M23.9402 12.5044V9.45459M24.4945 12.5044V9.45459M25.049 12.5044V9.45459M25.6036 12.5044V9.45459M26.152 12.5044V9.45459" stroke="white" stroke-width="0.288068"/>
<path d="M27.1648 12.8115H30.8244V9.15214H27.1648V12.8115Z" fill="white"/>
<path d="M27.1648 8.5874H30.8244V4.92783H27.1648V8.5874Z" fill="black"/>
<path d="M27.6138 9.45487V12.5049ZM28.1626 9.45505V12.5049ZM28.7169 9.45505V12.5049ZM29.2715 9.45505V12.5049ZM29.826 9.45505V12.5049ZM30.3744 9.45505V12.5049Z" fill="white"/>
<path d="M27.6138 9.45487V12.5049M28.1626 9.45505V12.5049M28.7169 9.45505V12.5049M29.2715 9.45505V12.5049M29.826 9.45505V12.5049M30.3744 9.45505V12.5049" stroke="white" stroke-width="0.288068"/>
<path d="M27.6138 5.2327V8.28271ZM28.1626 5.23289V8.28271ZM28.7169 5.23289V8.28271ZM29.2715 5.23289V8.28271ZM29.826 5.23289V8.28271ZM30.3744 5.23289V8.28271Z" fill="white"/>
<path d="M27.6138 5.2327V8.28271M28.1626 5.23289V8.28271M28.7169 5.23289V8.28271M29.2715 5.23289V8.28271M29.826 5.23289V8.28271M30.3744 5.23289V8.28271" stroke="white" stroke-width="0.288068"/>
<path d="M40.9854 10.0435C41.2685 7.84328 39.6219 6.11487 38.6008 5.29443C37.4239 6.655 37.2411 10.2208 39.0873 11.7219C38.0569 12.637 35.8859 13.4665 33.6628 13.4665H6.34895C6.1329 15.7871 6.34895 26.9619 6.34895 26.9619H46.42L46.2377 10.0797C44.5019 9.0781 42.2705 9.39774 40.9854 10.0435Z" fill="#95ABB3"/>
<path d="M6.34888 16.4365V26.9621H46.4199V16.4365" fill="black" fill-opacity="0.17"/>
<path d="M20.6114 26.0199C18.1111 24.8335 16.7387 23.2205 15.9752 21.46L8.38013 21.7912L12.258 26.9617L20.6114 26.0199Z" fill="#697172"/>
<path d="M41.1571 9.96156V9.9671C37.3051 14.9344 31.7796 19.2702 25.8478 21.5489C20.5564 23.5816 15.943 23.5912 12.7601 21.9589C12.4173 21.7653 12.0812 21.5504 11.7444 21.3473C9.41089 19.7164 8.09667 17.0189 8.2071 13.4647H6.34888V26.9616H46.4199V9.23438H41.8034L41.1571 9.96156Z" fill="black" fill-opacity="0.085"/>
</g>
<path d="M8.49561 21.6127C11.1113 21.7558 13.9028 21.7814 16.3381 21.0181" stroke="white" stroke-width="0.627841" stroke-linecap="round"/>
<path d="M18.9372 19.7529C18.9371 20.0206 18.8307 20.2773 18.6414 20.4666C18.4521 20.6559 18.1954 20.7623 17.9277 20.7624C17.66 20.7623 17.4032 20.6559 17.2139 20.4666C17.0245 20.2773 16.9181 20.0206 16.918 19.7529C16.9181 19.4851 17.0245 19.2283 17.2138 19.039C17.4032 18.8497 17.6599 18.7433 17.9277 18.7432C18.1954 18.7433 18.4521 18.8497 18.6414 19.0391C18.8307 19.2284 18.9371 19.4851 18.9372 19.7529Z" fill="#697172"/>
<path d="M18.1893 19.0787C18.1334 19.1114 18.0898 19.1615 18.0652 19.2214C18.0406 19.2813 18.0363 19.3476 18.0531 19.4101C18.0698 19.4727 18.1066 19.528 18.1579 19.5675C18.2091 19.6071 18.2719 19.6288 18.3367 19.6292C18.4484 19.6292 18.5453 19.5671 18.5955 19.4755C18.631 19.5608 18.6506 19.6546 18.6506 19.7529C18.6506 20.1521 18.3269 20.4758 17.9275 20.4758C17.528 20.4758 17.2043 20.1521 17.2043 19.7529C17.2045 19.5611 17.2807 19.3773 17.4163 19.2417C17.5519 19.106 17.7357 19.0298 17.9275 19.0296C18.017 19.0295 18.1058 19.0461 18.1893 19.0785V19.0787ZM0.0705566 16.6512H47.0343C46.0117 16.3917 43.7991 16.0414 44.1638 14.7012C42.3043 16.8528 37.8202 16.2106 36.6888 15.1499C35.4285 16.9776 28.092 16.283 27.5803 14.8591C26.0004 16.713 21.1049 16.713 19.5249 14.8591C19.0131 16.2809 11.6769 16.9776 10.4163 15.1499C9.28467 16.2109 4.80263 16.853 2.94127 14.7012C3.30615 16.0414 1.09357 16.3919 0.0705566 16.6512Z" fill="white"/>
</svg>
